# xmcd CD database file
#
# Track frame offsets:
#	150
#	19347
#	41854
#	62941
#	92123
#	109571
#	134591
#	156659
#	186070
#
# Disc length: 2748 seconds
#
# Revision: 2
# Processed by: cddbd v1.5.2PL0 Copyright (c) Steve Scherf et al.
# Submitted via: CDex 1.70beta2
#
DISCID=830aba09
DTITLE=ФЁДОР ЧИСТЯКОВ - Bayan, Harp and Blues Подмосковные Вечера 
DYEAR=2000
DGENRE=Rock
TTITLE0=Bayan, Harp and Blues
TTITLE1=Зима в Африке
TTITLE2=Подлёдный лов
TTITLE3=Ой, цветёт латино
TTITLE4=Ламбада ля минор
TTITLE5=Компарсита драйв
TTITLE6=Across The Universe
TTITLE7=Темная Ночь
TTITLE8=Bayan, Harp And Brazil
EXTD=YEAR: 2000
EXTT0=
EXTT1=
EXTT2=
EXTT3=
EXTT4=
EXTT5=
EXTT6=
EXTT7=
EXTT8=
PLAYORDER=
